<svg xmlns="http://www.w3.org/2000/svg" viewBox="0 0 3296.07 2318.04">
  <style>
    path { fill: #000; }
    @media (prefers-color-scheme: dark) {
      path { fill: #fff; }
    }
  </style>
  <g transform="translate(-0.371785,2318.009031) scale(0.1,-0.1)">
    <path d="M10658 23169 c-506 -49 -979 -320 -1271 -727 -62 -87 -2356 -4053 -2439 -4216 -242 -480 -241 -1082 2 -1565 80 -159 2373 -4124 2436 -4213 233 -326 605 -579 999 -678 220 -56 127 -53 2090 -60 1704 -6 1835 -7 1905 -24 485 -114 808 -384 1058 -881 182 -364 199 -798 45 -1175 -44 -105 -1058 -1872 -1152 -2005 -203 -288 -561 -511 -911 -569 -563 -93 -1064 58 -1416 426 -125 132 -109 105 -1043 1723 -463 803 -869 1496 -901 1539 -307 413 -759 667 -1275 716 -152 14 -4728 14 -4880 0 -548 -52 -1059 -364 -1342 -820 -106 -170 -2361 -4085 -2394 -4156 -221 -474 -221 -1024 0 -1498 30 -63 2146 -3740 2363 -4106 295 -496 804 -817 1378 -869 155 -15 4709 -15 4869 -1 534 48 1025 333 1315 765 30 44 431 732 891 1530 460 797 858 1481 883 1519 225 336 628 567 1058 607 607 55 1127 -170 1431 -621 17 -25 410 -702 873 -1505 464 -803 861 -1487 883 -1520 296 -440 779 -723 1322 -775 152 -14 4718 -14 4870 0 552 52 1038 343 1332 795 87 136 2364 4084 2410 4181 115 242 158 446 158 749 0 303 -43 506 -158 749 -49 102 -2342 4079 -2420 4196 -296 445 -776 728 -1322 780 -71 6 -720 10 -1830 10 -1868 0 -1792 -2 -1990 55 -430 125 -774 448 -977 918 -165 381 -154 836 27 1197 58 114 1064 1850 1112 1919 200 283 551 501 914 567 135 25 476 25 614 0 371 -67 686 -261 910 -560 29 -39 432 -728 895 -1531 899 -1558 895 -1551 987 -1665 270 -334 644 -552 1088 -633 l120 -22 2455 0 2455 0 120 22 c503 92 930 370 1190 773 85 131 2370 4098 2412 4186 118 250 157 436 157 749 0 322 -40 507 -168 770 -85 173 -2383 4144 -2456 4242 -303 411 -764 667 -1280 713 -157 14 -4703 14 -4860 0 -517 -46 -977 -303 -1280 -713 -36 -48 -451 -757 -924 -1575 -472 -818 -883 -1521 -914 -1562 -316 -424 -807 -625 -1396 -571 -423 39 -810 257 -1042 588 -28 39 -432 732 -899 1542 -467 809 -879 1512 -915 1563 -219 312 -592 570 -970 672 -242 65 -36 60 -2700 62 -1328 1 -2454 -2 -2502 -7z" />
  </g>
</svg>
